<?xml version="1.0" encoding="UTF-8"?>
<svg xmlns="http://www.w3.org/2000/svg" xmlns:xlink="http://www.w3.org/1999/xlink" id="Logo-Colour" width="827.124" height="190.578" viewBox="0 0 827.124 190.578">
  <defs>
    <clipPath id="clip-path">
      <rect id="Rectangle_3874" data-name="Rectangle 3874" width="827.124" height="190.578" fill="none"></rect>
    </clipPath>
  </defs>
  <path id="Path_5042" data-name="Path 5042" d="M265.286,117.262H240.761L235.685,128.8h-6.791l20.9-46.148h6.526L277.284,128.8h-6.923Zm-2.308-5.274-9.955-22.613-9.955,22.613Z" transform="translate(-57.405 -20.729)" fill="#1d1c1c"></path>
  <g id="Group_8817" data-name="Group 8817">
    <g id="Group_8816" data-name="Group 8816" clip-path="url(#clip-path)">
      <path id="Path_5043" data-name="Path 5043" d="M355.561,100.994q3.858,3.823,3.857,11.339v20.108H353.09V113.058q0-5.076-2.341-7.647a8.584,8.584,0,0,0-6.691-2.571,10.019,10.019,0,0,0-7.647,3q-2.836,3-2.836,8.6v18h-6.329V113.058q0-5.076-2.341-7.647a8.586,8.586,0,0,0-6.692-2.571,10.02,10.02,0,0,0-7.647,3q-2.835,3-2.835,8.6v18H301.4V97.5h6.066v5.208a12.258,12.258,0,0,1,5.01-4.12,16.781,16.781,0,0,1,7.054-1.417,15.477,15.477,0,0,1,7.252,1.648,11.451,11.451,0,0,1,4.879,4.813,13.383,13.383,0,0,1,5.505-4.747,17.937,17.937,0,0,1,7.945-1.714q6.59,0,10.448,3.824" transform="translate(-75.59 -24.37)" fill="#1d1c1c"></path>
      <path id="Path_5044" data-name="Path 5044" d="M422.037,99.412a16.134,16.134,0,0,1,6.3,6.263,20.206,20.206,0,0,1,0,18.624,16.062,16.062,0,0,1-6.3,6.3,18.365,18.365,0,0,1-9.1,2.242,16.187,16.187,0,0,1-6.889-1.451,14.321,14.321,0,0,1-5.307-4.219v18.064h-6.329V97.5h6.065v5.538a13.424,13.424,0,0,1,5.34-4.384,16.85,16.85,0,0,1,7.12-1.483,18.373,18.373,0,0,1,9.1,2.242m-3.593,26.338a11.154,11.154,0,0,0,4.22-4.351,14.108,14.108,0,0,0,0-12.856,10.931,10.931,0,0,0-4.22-4.318,12,12,0,0,0-6.033-1.517,11.679,11.679,0,0,0-5.966,1.549,11.223,11.223,0,0,0-4.22,4.318,12.874,12.874,0,0,0-1.549,6.394,13.283,13.283,0,0,0,1.516,6.428,10.854,10.854,0,0,0,4.22,4.351,12.453,12.453,0,0,0,12.031,0" transform="translate(-98.917 -24.37)" fill="#1d1c1c"></path>
      <path id="Path_5045" data-name="Path 5045" d="M483.664,96.459q3.922,3.857,3.923,11.306v20.108h-6.329V108.49q0-5.076-2.439-7.647t-6.988-2.571a10.891,10.891,0,0,0-8.109,3q-2.966,3-2.967,8.6v18h-6.329V78.955h6.329V97.876a13.069,13.069,0,0,1,5.176-3.89,17.825,17.825,0,0,1,7.153-1.385q6.657,0,10.581,3.857" transform="translate(-113.968 -19.802)" fill="#1d1c1c"></path>
      <rect id="Rectangle_3871" data-name="Rectangle 3871" width="6.329" height="48.918" transform="translate(385.354 59.153)" fill="#1d1c1c"></rect>
      <path id="Path_5046" data-name="Path 5046" d="M569.267,117.08H540.918a10.971,10.971,0,0,0,4.055,7.416,13.224,13.224,0,0,0,8.6,2.8,12.958,12.958,0,0,0,10.086-4.22l3.495,4.087a15.307,15.307,0,0,1-5.9,4.22,22.248,22.248,0,0,1-17.7-.824,16.211,16.211,0,0,1-6.626-6.361,18.237,18.237,0,0,1-2.341-9.23,18.535,18.535,0,0,1,2.275-9.164,16.291,16.291,0,0,1,6.263-6.361,17.84,17.84,0,0,1,9-2.275,17.483,17.483,0,0,1,8.934,2.275,15.985,15.985,0,0,1,6.132,6.361,19.4,19.4,0,0,1,2.208,9.362,18.2,18.2,0,0,1-.132,1.912m-24.755-11.8a11.161,11.161,0,0,0-3.593,7.252h22.415a11.245,11.245,0,0,0-3.593-7.219,11.8,11.8,0,0,0-15.229-.033" transform="translate(-134.073 -24.37)" fill="#1d1c1c"></path>
      <path id="Path_5047" data-name="Path 5047" d="M610.724,127.947a9.456,9.456,0,0,1-3.428,1.813,14.326,14.326,0,0,1-4.22.626q-5.274,0-8.175-2.835t-2.9-8.109V100.258h-5.933V95.05H592V87.4h6.329V95.05h10.021v5.208H598.33v18.921a6.132,6.132,0,0,0,1.418,4.351,5.275,5.275,0,0,0,4.055,1.516,7.627,7.627,0,0,0,4.944-1.648Z" transform="translate(-146.983 -21.92)" fill="#1d1c1c"></path>
      <path id="Path_5048" data-name="Path 5048" d="M646.01,127.947a9.455,9.455,0,0,1-3.428,1.813,14.326,14.326,0,0,1-4.219.626q-5.274,0-8.175-2.835t-2.9-8.109V100.258h-5.933V95.05h5.933V87.4h6.329V95.05h10.021v5.208H633.616v18.921a6.132,6.132,0,0,0,1.417,4.351,5.275,5.275,0,0,0,4.055,1.516,7.627,7.627,0,0,0,4.944-1.648Z" transform="translate(-155.833 -21.92)" fill="#1d1c1c"></path>
      <path id="Path_5049" data-name="Path 5049" d="M689.372,82.651h6.593v40.413h24.986V128.8H689.372Z" transform="translate(-172.891 -20.728)" fill="#1d1c1c"></path>
      <path id="Path_5050" data-name="Path 5050" d="M740.134,84.689a3.887,3.887,0,0,1-1.22-2.9,4,4,0,0,1,1.22-2.934,4.159,4.159,0,0,1,3.066-1.22,4.292,4.292,0,0,1,3.066,1.154,3.791,3.791,0,0,1,1.22,2.868,4.078,4.078,0,0,1-1.22,3,4.157,4.157,0,0,1-3.066,1.22,4.217,4.217,0,0,1-3.066-1.187m-.1,7.912h6.329v34.941h-6.329Z" transform="translate(-185.316 -19.47)" fill="#1d1c1c"></path>
      <path id="Path_5051" data-name="Path 5051" d="M765.262,131.683a18.064,18.064,0,0,1-6.2-2.934l2.636-5.011a18.915,18.915,0,0,0,5.6,2.637,23.049,23.049,0,0,0,6.658.989q8.307,0,8.307-4.747a3.076,3.076,0,0,0-1.121-2.5,7.1,7.1,0,0,0-2.8-1.352q-1.681-.428-4.78-.956a46.727,46.727,0,0,1-6.889-1.516,10.61,10.61,0,0,1-4.582-2.9,8.068,8.068,0,0,1-1.912-5.736,8.957,8.957,0,0,1,3.956-7.614q3.955-2.868,10.614-2.868a29.272,29.272,0,0,1,6.989.857,18.822,18.822,0,0,1,5.735,2.308l-2.7,5.011a18.179,18.179,0,0,0-10.087-2.77,11.662,11.662,0,0,0-6.131,1.319,3.979,3.979,0,0,0-2.109,3.494,3.327,3.327,0,0,0,1.187,2.7,7.482,7.482,0,0,0,2.933,1.45q1.746.462,4.912,1.055a53.476,53.476,0,0,1,6.824,1.549,10.207,10.207,0,0,1,4.45,2.8,7.811,7.811,0,0,1,1.845,5.538,8.731,8.731,0,0,1-4.055,7.548q-4.054,2.8-11.042,2.8a29.324,29.324,0,0,1-8.241-1.154" transform="translate(-190.37 -24.37)" fill="#1d1c1c"></path>
      <path id="Path_5052" data-name="Path 5052" d="M809.347,131.683a18.064,18.064,0,0,1-6.2-2.934l2.636-5.011a18.915,18.915,0,0,0,5.6,2.637,23.049,23.049,0,0,0,6.658.989q8.307,0,8.307-4.747a3.076,3.076,0,0,0-1.121-2.5,7.1,7.1,0,0,0-2.8-1.352q-1.681-.428-4.78-.956a46.727,46.727,0,0,1-6.889-1.516,10.61,10.61,0,0,1-4.582-2.9,8.069,8.069,0,0,1-1.912-5.736,8.957,8.957,0,0,1,3.956-7.614q3.955-2.868,10.614-2.868a29.272,29.272,0,0,1,6.989.857,18.821,18.821,0,0,1,5.735,2.308l-2.7,5.011a18.179,18.179,0,0,0-10.087-2.77,11.662,11.662,0,0,0-6.131,1.319,3.979,3.979,0,0,0-2.109,3.494,3.327,3.327,0,0,0,1.187,2.7,7.483,7.483,0,0,0,2.933,1.45q1.746.462,4.912,1.055a53.478,53.478,0,0,1,6.824,1.549,10.206,10.206,0,0,1,4.45,2.8,7.811,7.811,0,0,1,1.845,5.538,8.731,8.731,0,0,1-4.055,7.548q-4.054,2.8-11.043,2.8a29.324,29.324,0,0,1-8.24-1.154" transform="translate(-201.426 -24.37)" fill="#1d1c1c"></path>
      <path id="Path_5053" data-name="Path 5053" d="M852.855,84.689a3.888,3.888,0,0,1-1.22-2.9,4,4,0,0,1,1.22-2.934,4.159,4.159,0,0,1,3.066-1.22,4.292,4.292,0,0,1,3.065,1.154,3.791,3.791,0,0,1,1.22,2.868,4.078,4.078,0,0,1-1.22,3,4.157,4.157,0,0,1-3.065,1.22,4.217,4.217,0,0,1-3.066-1.187m-.1,7.912h6.328v34.941h-6.328Z" transform="translate(-213.586 -19.47)" fill="#1d1c1c"></path>
      <path id="Path_5054" data-name="Path 5054" d="M931.839,100.994q3.858,3.823,3.857,11.339v20.108h-6.329V113.058q0-5.076-2.341-7.647a8.585,8.585,0,0,0-6.69-2.571,10.019,10.019,0,0,0-7.648,3q-2.836,3-2.836,8.6v18h-6.329V113.058q0-5.076-2.34-7.647a8.587,8.587,0,0,0-6.692-2.571,10.021,10.021,0,0,0-7.647,3q-2.835,3-2.835,8.6v18h-6.328V97.5h6.066v5.208a12.263,12.263,0,0,1,5.01-4.12,16.782,16.782,0,0,1,7.054-1.417,15.479,15.479,0,0,1,7.252,1.648,11.459,11.459,0,0,1,4.879,4.813,13.391,13.391,0,0,1,5.5-4.747,17.942,17.942,0,0,1,7.945-1.714q6.592,0,10.449,3.824" transform="translate(-220.118 -24.37)" fill="#1d1c1c"></path>
      <path id="Path_5055" data-name="Path 5055" d="M975.478,130.529a16.729,16.729,0,0,1-6.494-6.362,19.245,19.245,0,0,1,0-18.394,16.5,16.5,0,0,1,6.494-6.329,20.335,20.335,0,0,1,18.69,0,16.57,16.57,0,0,1,6.46,6.329,19.239,19.239,0,0,1,0,18.394,16.8,16.8,0,0,1-6.46,6.362,20.077,20.077,0,0,1-18.69,0m15.394-4.78a10.934,10.934,0,0,0,4.187-4.351,14.388,14.388,0,0,0,0-12.856,10.717,10.717,0,0,0-4.187-4.318,12.752,12.752,0,0,0-12.065,0,10.922,10.922,0,0,0-4.218,4.318,14.1,14.1,0,0,0,0,12.856,11.145,11.145,0,0,0,4.218,4.351,12.519,12.519,0,0,0,12.065,0" transform="translate(-242.43 -24.37)" fill="#1d1c1c"></path>
      <path id="Path_5056" data-name="Path 5056" d="M1037.776,98.752a17.7,17.7,0,0,1,7.846-1.582V103.3a12.674,12.674,0,0,0-1.451-.066,10.65,10.65,0,0,0-8.076,3.066q-2.934,3.067-2.934,8.736v17.4h-6.329V97.5h6.065v5.867a10.8,10.8,0,0,1,4.879-4.614" transform="translate(-257.525 -24.37)" fill="#1d1c1c"></path>
      <path id="Path_5057" data-name="Path 5057" d="M1092.219,117.08h-28.348a10.971,10.971,0,0,0,4.055,7.416,13.223,13.223,0,0,0,8.6,2.8,12.96,12.96,0,0,0,10.086-4.22l3.495,4.087a15.307,15.307,0,0,1-5.9,4.22,22.248,22.248,0,0,1-17.7-.824,16.21,16.21,0,0,1-6.626-6.361,18.236,18.236,0,0,1-2.34-9.23,18.534,18.534,0,0,1,2.274-9.164,16.293,16.293,0,0,1,6.263-6.361,17.84,17.84,0,0,1,9-2.275,17.483,17.483,0,0,1,8.933,2.275,15.99,15.99,0,0,1,6.132,6.361,19.4,19.4,0,0,1,2.208,9.362,18.234,18.234,0,0,1-.132,1.912m-24.755-11.8a11.157,11.157,0,0,0-3.593,7.252h22.415a11.246,11.246,0,0,0-3.593-7.219,11.8,11.8,0,0,0-15.229-.033" transform="translate(-265.227 -24.37)" fill="#1d1c1c"></path>
      <path id="Path_5058" data-name="Path 5058" d="M512.938,224.206a9.556,9.556,0,0,1-3.676-2.321l.779-1.287a9.19,9.19,0,0,0,3.371,2.152,12.094,12.094,0,0,0,4.456.829,8.5,8.5,0,0,0,5.116-1.287,4,4,0,0,0,1.728-3.354,3.506,3.506,0,0,0-.915-2.542,6.048,6.048,0,0,0-2.27-1.456,31.21,31.21,0,0,0-3.659-1.05,35.6,35.6,0,0,1-4.185-1.254,6.669,6.669,0,0,1-2.677-1.881,5.019,5.019,0,0,1-1.1-3.405,5.792,5.792,0,0,1,.915-3.168,6.211,6.211,0,0,1,2.8-2.287,11.446,11.446,0,0,1,4.693-.847,13.244,13.244,0,0,1,3.863.576,11.372,11.372,0,0,1,3.287,1.559l-.644,1.389a10.976,10.976,0,0,0-3.135-1.491,11.8,11.8,0,0,0-3.371-.509,7.985,7.985,0,0,0-4.981,1.322,4.142,4.142,0,0,0-1.694,3.422,3.507,3.507,0,0,0,.915,2.542,6.057,6.057,0,0,0,2.27,1.456,34.215,34.215,0,0,0,3.694,1.084,34.753,34.753,0,0,1,4.168,1.254,6.858,6.858,0,0,1,2.66,1.847,4.837,4.837,0,0,1,1.1,3.338,5.635,5.635,0,0,1-.932,3.151,6.337,6.337,0,0,1-2.863,2.27,11.8,11.8,0,0,1-4.744.847,13.8,13.8,0,0,1-4.964-.9" transform="translate(-127.721 -50.421)" fill="#1d1c1c"></path>
      <path id="Path_5059" data-name="Path 5059" d="M547.54,223.529a11.6,11.6,0,0,1-4.422-4.321,12.486,12.486,0,0,1,0-12.266,11.6,11.6,0,0,1,4.422-4.32,12.662,12.662,0,0,1,6.3-1.576,12.789,12.789,0,0,1,6.3,1.559,11.491,11.491,0,0,1,4.422,4.3,12.62,12.62,0,0,1,0,12.333,11.481,11.481,0,0,1-4.422,4.3,13.45,13.45,0,0,1-12.605-.016m11.691-1.373a9.983,9.983,0,0,0,3.795-3.744,10.942,10.942,0,0,0,0-10.674,9.983,9.983,0,0,0-3.795-3.744,11.415,11.415,0,0,0-10.792,0,9.942,9.942,0,0,0-3.813,3.744,10.947,10.947,0,0,0,0,10.674,9.942,9.942,0,0,0,3.813,3.744,11.415,11.415,0,0,0,10.792,0" transform="translate(-135.808 -50.421)" fill="#1d1c1c"></path>
      <path id="Path_5060" data-name="Path 5060" d="M586.962,201.273h1.728v22.161h13.655v1.558H586.962Z" transform="translate(-147.207 -50.478)" fill="#1d1c1c"></path>
      <rect id="Rectangle_3872" data-name="Rectangle 3872" width="1.728" height="23.719" transform="translate(462.966 150.795)" fill="#1d1c1c"></rect>
      <path id="Path_5061" data-name="Path 5061" d="M638.793,223.546a11.519,11.519,0,0,1-4.405-4.3,12.62,12.62,0,0,1,0-12.333,11.519,11.519,0,0,1,4.405-4.3,12.682,12.682,0,0,1,6.286-1.559,13.182,13.182,0,0,1,4.744.83,9.789,9.789,0,0,1,3.693,2.457l-1.084,1.119a9.931,9.931,0,0,0-7.286-2.813A10.974,10.974,0,0,0,639.724,204a9.911,9.911,0,0,0-3.828,3.744,10.942,10.942,0,0,0,0,10.674,9.918,9.918,0,0,0,3.828,3.745,10.966,10.966,0,0,0,5.421,1.355,9.94,9.94,0,0,0,7.286-2.846l1.084,1.118a9.912,9.912,0,0,1-3.711,2.474,12.961,12.961,0,0,1-4.726.847,12.674,12.674,0,0,1-6.286-1.559" transform="translate(-158.698 -50.422)" fill="#1d1c1c"></path>
      <rect id="Rectangle_3873" data-name="Rectangle 3873" width="1.728" height="23.719" transform="translate(503.999 150.795)" fill="#1d1c1c"></rect>
      <path id="Path_5062" data-name="Path 5062" d="M693.779,202.831h-8.539v-1.558h18.806v1.558h-8.539v22.161h-1.728Z" transform="translate(-171.855 -50.478)" fill="#1d1c1c"></path>
      <path id="Path_5063" data-name="Path 5063" d="M723.111,223.529a11.6,11.6,0,0,1-4.421-4.321,12.491,12.491,0,0,1,0-12.266,11.606,11.606,0,0,1,4.421-4.32,13.455,13.455,0,0,1,12.606-.017,11.489,11.489,0,0,1,4.421,4.3,12.62,12.62,0,0,1,0,12.333,11.478,11.478,0,0,1-4.421,4.3,13.452,13.452,0,0,1-12.606-.016m11.691-1.373a9.978,9.978,0,0,0,3.795-3.744,10.942,10.942,0,0,0,0-10.674,9.978,9.978,0,0,0-3.795-3.744,11.415,11.415,0,0,0-10.792,0,9.933,9.933,0,0,0-3.811,3.744,10.936,10.936,0,0,0,0,10.674,9.932,9.932,0,0,0,3.811,3.744,11.415,11.415,0,0,0,10.792,0" transform="translate(-179.841 -50.421)" fill="#1d1c1c"></path>
      <path id="Path_5064" data-name="Path 5064" d="M779,224.993l-5.659-7.929a17.271,17.271,0,0,1-2.3.169h-6.777v7.76h-1.728v-23.72h8.506a10.637,10.637,0,0,1,7.014,2.118,7.237,7.237,0,0,1,2.541,5.879,7.233,7.233,0,0,1-5.557,7.421l5.929,8.3Zm-7.963-9.285a8.8,8.8,0,0,0,5.794-1.677,6.667,6.667,0,0,0,0-9.522,8.794,8.794,0,0,0-5.794-1.678h-6.777v12.877Z" transform="translate(-191.24 -50.478)" fill="#1d1c1c"></path>
      <path id="Path_5065" data-name="Path 5065" d="M800.085,224.206a9.556,9.556,0,0,1-3.676-2.321l.779-1.287a9.184,9.184,0,0,0,3.371,2.152,12.1,12.1,0,0,0,4.456.829,8.5,8.5,0,0,0,5.117-1.287,4,4,0,0,0,1.728-3.354,3.507,3.507,0,0,0-.916-2.542,6.042,6.042,0,0,0-2.27-1.456,31.142,31.142,0,0,0-3.66-1.05,35.673,35.673,0,0,1-4.184-1.254,6.669,6.669,0,0,1-2.677-1.881,5.015,5.015,0,0,1-1.1-3.405,5.792,5.792,0,0,1,.915-3.168,6.211,6.211,0,0,1,2.8-2.287,11.445,11.445,0,0,1,4.694-.847,13.239,13.239,0,0,1,3.862.576,11.386,11.386,0,0,1,3.288,1.559l-.644,1.389a11.006,11.006,0,0,0-3.135-1.491,11.811,11.811,0,0,0-3.371-.509,7.981,7.981,0,0,0-4.981,1.322,4.141,4.141,0,0,0-1.695,3.422,3.51,3.51,0,0,0,.914,2.542,6.066,6.066,0,0,0,2.271,1.456,34.245,34.245,0,0,0,3.693,1.084,34.727,34.727,0,0,1,4.169,1.254,6.853,6.853,0,0,1,2.66,1.847,4.841,4.841,0,0,1,1.1,3.338,5.635,5.635,0,0,1-.932,3.151,6.341,6.341,0,0,1-2.863,2.27,11.8,11.8,0,0,1-4.744.847,13.8,13.8,0,0,1-4.964-.9" transform="translate(-199.736 -50.421)" fill="#1d1c1c"></path>
      <path id="Path_5066" data-name="Path 5066" d="M129.695,123.244,115.276,69.174q-1.416-5.147-3.285-12.13-1.9-6.983-3.711-15.11c-1.158,5.52-2.341,10.614-3.552,15.323s-2.367,8.752-3.445,12.184l-14.431,53.8Z" transform="translate(-21.782 -10.517)" fill="#d50068"></path>
      <path id="Path_5067" data-name="Path 5067" d="M144.082,0l22.2,72.225L188.36,0Z" transform="translate(-36.135 0)" fill="#d50068"></path>
      <path id="Path_5068" data-name="Path 5068" d="M150.01,136.828l15.8,51.382h-28.2a11.222,11.222,0,0,1-7.808-2.78,14.488,14.488,0,0,1-4.243-7.116l-9.258-34.424H56.677l-9.258,34.424a15.457,15.457,0,0,1-4.19,6.85,10.528,10.528,0,0,1-7.649,3.046H7.169L65.039,0H58.751L0,190.578H223.326V136.322Z" transform="translate(0 0)" fill="#d50068"></path>
    </g>
  </g>
</svg>
