<svg width="140" height="80" viewBox="0 0 140 80" fill="none" xmlns="http://www.w3.org/2000/svg"><g clip-path="url(#clip0_5022_200)" fill="#fff"><path d="M81.247 30.77h4.632c-.07.137-.086.211-.115.22-1.249.32-1.267.341-1.293 1.707-.065 3.33-.128 6.66-.19 9.988-.006.293.104.678-.238.82-.341.143-.614-.148-.854-.372-2.587-2.408-5.151-4.84-7.597-7.39-.415-.432-.816-.878-1.288-1.386a3.71 3.71 0 0 0-.074 1.864c.02 1.78.048 3.56.155 5.336.07 1.19.149 1.203 1.353 1.425.1.027.198.063.293.105-.135.372-.427.256-.65.256-2.009.008-4.017 0-6.026 0a3.105 3.105 0 0 1-2.318-.984 27.194 27.194 0 0 1-2.701-3.5 1.93 1.93 0 0 0-2.077-.712.417.417 0 0 0-.313.458 27.305 27.305 0 0 0 .123 3.5.847.847 0 0 0 .84.817.885.885 0 0 1 .797.312h-5.378c.039-.085.053-.192.098-.206 1.2-.392 1.19-.394 1.249-1.673.128-2.822.04-5.647.06-8.47.01-1.468-.026-1.483-1.463-1.874a.595.595 0 0 1-.17-.122c.134-.28.362-.235.547-.218 2.03.177 4.065-.138 6.094.07a3.244 3.244 0 0 1 2.988 1.894 3.168 3.168 0 0 1-.768 3.445c-.13.157-.274.3-.418.446-.92.939-.93.945-.06 1.985.88 1.053 1.775 2.094 2.684 3.122a3.278 3.278 0 0 0 2.56 1.301c.564-.01.928-.218.969-.827.024-.355.073-.71.08-1.064.05-3.23.096-6.46.14-9.69.005-.323-.093-.732.256-.897.386-.183.576.226.797.446 2.829 2.818 5.655 5.64 8.48 8.463.146.146.256.456.527.322.202-.101.107-.372.103-.565-.04-2.212-.074-4.425-.145-6.636-.038-1.181-.156-1.273-1.386-1.436-.134-.003-.248-.03-.303-.28Zm-19.315 3.61v2.058a.697.697 0 0 0 .27.672 3.836 3.836 0 0 0 2.5-.202 3.383 3.383 0 0 0 .757-3.778 2.652 2.652 0 0 0-2.949-1.519c-.415.052-.583.238-.58.635.007.712.002 1.423.001 2.135h.001Zm-12.4 11.143a8.187 8.187 0 0 1 4.873 1.22c2.8 1.91 3.375 6.146 1.251 9.11-2.64 3.68-9.055 3.805-11.806.228a6.521 6.521 0 0 1 4.02-10.374 9.322 9.322 0 0 1 1.662-.184Zm4.74 7.212a6.334 6.334 0 0 0-1.602-4.848 4.46 4.46 0 0 0-4.751-1.228c-1.69.513-2.395 1.837-2.676 3.472a7.31 7.31 0 0 0-.117 1.82c.17 2.117.827 3.989 2.78 5.132a3.994 3.994 0 0 0 6.206-2.758 7.585 7.585 0 0 0 .16-1.59Zm44.462-18.267c0 .728-.013 1.425 0 2.121.034 1.474.077 2.949.13 4.423.01.303.073.604.1.907a1.018 1.018 0 0 0 1.082 1.037.584.584 0 0 1 .574.278h-4.714c.027-.059.04-.162.086-.177 1.29-.453 1.302-.45 1.332-1.842.044-2.034.07-4.068.098-6.103.018-1.272.025-2.544.04-3.816 0-.3-.07-.676.25-.826.39-.182.582.215.802.435 2.812 2.798 5.62 5.6 8.424 8.405.171.17.303.413.663.46 0-1.222.015-2.43 0-3.638a115.8 115.8 0 0 0-.116-3.66c-.052-1.139-.211-1.29-1.332-1.408-.123-.012-.256 0-.314-.152a12.637 12.637 0 0 1 4.537-.085c-.006.047 0 .128-.022.135-1.253.427-1.275.427-1.306 1.85-.068 3.128-.104 6.256-.171 9.383-.009.46.171 1.091-.341 1.307-.48.204-.796-.359-1.11-.659-2.779-2.646-5.602-5.251-8.208-8.075a.698.698 0 0 0-.484-.3ZM76.145 45.954a12.497 12.497 0 0 1 4.59 0c-.01.023-.017.068-.028.068-1.362.098-1.34 1.057-1.35 2.069-.037 3.202-.114 6.403-.182 9.604-.007.317.126.738-.243.895-.341.143-.618-.162-.853-.386-2.732-2.588-5.5-5.13-8.065-7.882a1.27 1.27 0 0 0-.153-.171c-.233-.17-.388-.604-.697-.474-.275.116-.08.504-.074.769.051 2.107.042 4.216.199 6.317.06.815.37 1.296 1.248 1.28.134 0 .335.011.325.224-.006.164-.17.176-.29.176-1.395 0-2.791-.01-4.187-.028-.052 0-.104-.085-.143-.117a.232.232 0 0 1 .2-.224c1.154-.361 1.228-.448 1.246-1.657.047-3.278.09-6.557.13-9.835a2.13 2.13 0 0 1 0-.23c.038-.291-.084-.682.252-.821.336-.14.556.17.768.384a7956 7956 0 0 1 8.549 8.589c.15.151.276.446.533.332.216-.096.085-.36.08-.554a7907.5 7907.5 0 0 1-.159-6.403c-.034-1.432-.032-1.43-1.451-1.756-.087-.013-.154-.1-.245-.169Zm44.591-8.829h5.304c-.106.148-.144.256-.189.256-1.11.075-1.14.832-1.11 1.68.033 1.016-.01 2.034 0 3.051a.816.816 0 0 1-.647.897 11.216 11.216 0 0 1-8.951-.654c-2.187-1.195-3.022-3.229-2.915-5.642a6.031 6.031 0 0 1 3.34-5.362 9.188 9.188 0 0 1 4.813-.907c1.244.063 2.482.205 3.708.427.251.043.532.044.52.413-.029.839-.054 1.678-.086 2.516-.006.146-.024.324-.234.322-.152 0-.208-.125-.235-.256-.35-1.644-1.688-2.05-3.046-2.362a6.195 6.195 0 0 0-2.732-.006 3.976 3.976 0 0 0-3.244 3.166 6.964 6.964 0 0 0 .667 5.172 5.8 5.8 0 0 0 5.87 2.732c.523-.092.817-.33.802-.91-.023-.966.006-1.933-.008-2.902-.015-.97-.157-1.121-1.11-1.295-.199-.035-.427-.007-.517-.336Zm-72.492-6.209c-1.708.077-1.44 1.276-1.43 2.29a45.297 45.297 0 0 0 .136 6.472 3.17 3.17 0 0 0 3.857 2.853 2.94 2.94 0 0 0 2.67-2.706c.208-2.635.225-5.282.051-7.92-.023-.543-.383-.722-.843-.818-.23-.048-.52.092-.742-.31h4.732c-.045.113-.052.19-.08.198-1.257.375-1.22.376-1.281 1.754-.093 2.157.108 4.319-.148 6.473a4.688 4.688 0 0 1-4.723 4.374c-.61.034-1.22.018-1.827-.048a4.404 4.404 0 0 1-4.162-4.468c-.104-1.902-.05-3.812-.059-5.72-.006-1.89 0-1.89-1.622-2.409.379-.284 4.556-.38 5.47-.015Zm55.937 15.114c-1.523.021-1.476.952-1.458 1.835.044 2.26-.146 4.525.103 6.782a3.372 3.372 0 0 0 3.714 3.095 3.373 3.373 0 0 0 1.655-.646 3.145 3.145 0 0 0 1.009-1.177 3.15 3.15 0 0 0 .321-1.518c.044-2.134.038-4.268.043-6.403 0-1.566 0-1.566-1.399-2.08a37.73 37.73 0 0 1 4.268-.09c-.02.116-.018.188-.036.193-1.15.342-1.202.4-1.212 1.622-.013 1.78-.024 3.56-.024 5.34 0 4.916-3.33 6.126-6.984 5.494-2.339-.403-3.633-2.006-3.763-4.498a63.54 63.54 0 0 1-.022-5.64c.066-1.803-.005-1.91-1.548-2.371a19.325 19.325 0 0 1 5.333.062ZM36.75 58.22c-.155.312-.443.229-.674.223-1.397-.038-2.793-.086-4.19 0-.181.012-.477.1-.512-.166-.043-.295.271-.263.443-.263.538 0 .675-.341.769-.776a10.9 10.9 0 0 0 .117-2.205c.012-2.49.006-4.982-.016-7.473-.01-1.163-.06-1.195-1.214-1.414a1.132 1.132 0 0 1-.282-.101c-.04-.02-.06-.077-.085-.118.02-.044.038-.127.06-.127a57.737 57.737 0 0 1 6.695.04 2.867 2.867 0 0 1 2.871 2.194 3.606 3.606 0 0 1-1.365 3.796 4.568 4.568 0 0 1-3.06.967c-.17 0-.412-.012-.427-.231-.012-.233.225-.217.397-.247 1.669-.287 2.476-1.435 2.284-3.254a2.692 2.692 0 0 0-2.841-2.499c-.472.015-.698.171-.694.665.02 3.203.03 6.403.048 9.608 0 .748.302 1.218 1.143 1.174a.525.525 0 0 1 .534.208Zm99.914.119h-3.691c-.139 0-.326.023-.309-.217.092-1.312-.769-2.32-1.11-3.496a.632.632 0 0 0-.704-.453c-1.069.01-2.137.01-3.206 0a.77.77 0 0 0-.803.556c-.237.617-.517 1.218-.759 1.832-.44 1.114-.378 1.262.853 1.762h-4.083a.58.58 0 0 1 .007-.117c1.16-.155 1.589-1.017 1.99-1.964 1.418-3.347 2.867-6.682 4.313-10.017.124-.288.16-.728.561-.739.4-.01.457.427.581.713a2842.4 2842.4 0 0 1 3.958 9.256c.089.21.177.422.27.63.44.986.859 1.992 2.204 2.071l-.072.183Zm-7.481-4.99c.381 0 .762-.006 1.143 0 .471.008.668-.147.468-.645-.435-1.085-.84-2.18-1.273-3.265-.058-.145-.065-.399-.298-.379-.205.016-.237.242-.301.401-.293.731-.583 1.463-.869 2.197-.655 1.675-.654 1.675 1.131 1.688l-.001.002Zm-37.946 5.007h-5.658c.074-.146.085-.215.12-.228 1.177-.473 1.21-.495 1.222-1.77.027-2.973.027-5.947.06-8.92.006-.498-.13-.665-.647-.617-.808.076-1.623.07-2.435.1a1.34 1.34 0 0 0-1.349.805c-.061.148-.134.378-.372.27-.162-.075-.115-.263-.105-.41a1.88 1.88 0 0 1 .051-.3c.036-.53.175-1.047.409-1.523.363-.463.977.01 1.488 0 3.1-.04 6.2-.018 9.3-.066.537-.008.668.148.636.628-.03.456-.01.915-.023 1.371-.005.171.049.411-.17.457-.257.054-.245-.206-.278-.364a1.046 1.046 0 0 0-.854-.78 13.575 13.575 0 0 0-2.956-.192c-.332-.024-.327.25-.326.483.013 3.227.02 6.454.049 9.681.006.635.288 1.072 1.03 1.024a.797.797 0 0 1 .808.35ZM41.706 33.4c-.199-1.365-1.017-1.543-1.97-1.6-2.402-.14-2.41-.156-2.399 2.246.012 2.49 0 4.98.086 7.468.046 1.288.135 1.286 1.421 1.466a.341.341 0 0 1 .353.269H33.62c.04-.112.047-.19.073-.198 1.195-.341 1.238-.347 1.25-1.59.033-3.05.014-6.099.035-9.148 0-.459-.194-.558-.598-.54-.863.04-1.727.048-2.59.07a1.28 1.28 0 0 0-1.16.732c-.078.143-.124.383-.362.307-.238-.075-.159-.287-.127-.456.098-.524.206-1.045.31-1.569.062-.309.224-.381.547-.341a60.7 60.7 0 0 0 10.34.105c.5-.025.745.057.655.592-.11.637.144 1.31-.286 2.188Zm72.518 21.833c.335.085.286.292.321.455a2.933 2.933 0 0 0 4.491 1.61 2.141 2.141 0 0 0 .797-1.466 2.146 2.146 0 0 0-.504-1.59 7.135 7.135 0 0 0-1.91-1.375 8.89 8.89 0 0 1-2.02-1.484 3.239 3.239 0 0 1-.16-4.556 3.23 3.23 0 0 1 1.409-.89 7.897 7.897 0 0 1 4.216-.171c.291.05.542.187.526.544.025.678-.013 1.356-.113 2.027-.256 0-.25-.188-.3-.32a2.57 2.57 0 0 0-1.599-1.567 2.577 2.577 0 0 0-2.222.273 1.666 1.666 0 0 0-.916 1.288 1.664 1.664 0 0 0 .561 1.477c.623.522 1.304.97 2.029 1.338.52.318 1.022.664 1.503 1.038a3.627 3.627 0 0 1 1.324 3.82 3.521 3.521 0 0 1-2.783 2.736 7.837 7.837 0 0 1-4.212-.128.733.733 0 0 1-.617-.82c-.014-.751.046-1.5.179-2.24Zm-49.93 3.099a2.82 2.82 0 0 1-1.4.104c-1.196-.067-2.386-.033-3.578.017-.186.007-.48.085-.52-.171-.046-.294.267-.256.441-.263.512-.02.715-.316.748-.78.043-.606.11-1.213.114-1.821.01-2.54 0-5.081 0-7.622 0-1.303 0-1.302-1.196-1.696-.063-.02-.107-.098-.27-.256h5.138c.038.164-.06.256-.143.256-1.077.021-1.15.74-1.144 1.567.021 3.049.013 6.096.035 9.145.007.959.164 1.09 1.163 1.203.205.024.461-.028.612.317Zm29.18-27.561c-.053.127-.06.171-.072.171-1.25.122-1.3.998-1.29 1.97.03 2.844-.005 5.69.051 8.537.027 1.317.097 1.316 1.42 1.54a.426.426 0 0 1 .39.26h-5.588c.036-.1.04-.17.067-.181 1.21-.373 1.191-.374 1.254-1.656.133-2.691.048-5.383.06-8.074 0-1.051.317-2.332-1.551-2.36l.17-.201 5.088-.006ZM51.456 11.346 35.758-.195V6.64a36.636 36.636 0 0 0-33.88 34.51h3.695a33.012 33.012 0 0 1 30.183-30.806v1.868a31.153 31.153 0 0 0-28.32 28.94h4.413a26.686 26.686 0 0 1 23.907-24.519v6.192l15.699-11.48ZM11.892 45.668H1.91a36.631 36.631 0 0 0 36.547 34.139v-9.95a26.682 26.682 0 0 1-26.565-24.189ZM6.258 56.371l.548-2.497-1.687-1.49 2.279-.262 1.095-2.19 1.052 2.103 2.278.263-1.622 1.536.482 2.542-2.191-1.096-2.234 1.091Zm9.19 8.737-2.19-1.095-2.235 1.095.548-2.497-1.687-1.49 2.279-.263 1.095-2.191 1.052 2.103 2.278.263-1.622 1.537.483 2.538Zm7.399 7.347-2.19-1.096-2.236 1.096.548-2.497-1.687-1.49 2.279-.263 1.095-2.19 1.052 2.103 2.278.263-1.622 1.537.483 2.537Zm10.219 4.765-2.191-1.095-2.234 1.095.548-2.497-1.687-1.49 2.278-.263 1.095-2.19 1.052 2.103 2.279.263-1.622 1.537.482 2.537Z"/></g><defs><clipPath id="clip0_5022_200"><path fill="#fff" d="M0 0h140v80H0z"/></clipPath></defs></svg>